<?xml version="1.0" ?><!DOCTYPE svg  PUBLIC '-//W3C//DTD SVG 1.1//EN'  'http://www.w3.org/Graphics/SVG/1.1/DTD/svg11.dtd'><svg enable-background="new 0 0 64 64" height="64px" id="Layer_1" version="1.1" viewBox="0 0 64 64" width="64px" xml:space="preserve" xmlns="http://www.w3.org/2000/svg" xmlns:xlink="http://www.w3.org/1999/xlink"><g><g><path d="M32.105,36h-0.211L24.259,7H1v8h2.383C4.363,15,6,16.004,6,16.846v30.473C6,48.16,4.363,49,3.383,49H1v8    h19v-8h-5V17h0.223L25.94,57h8.406l10.859-40H45v32h-4v8h22v-8h-2.452C59.639,49,58,48.16,58,47.318V16.846    C58,16.004,59.639,15,60.548,15H63V7H39.812L32.105,36z" fill="#6A8DA0"/></g><g><path d="M15,19.802c-3-0.577-7-1.321-9-2.202v29.719C6,48.16,4.363,49,3.383,49H1v8h19v-8h-5V19.802z" fill="#45687F"/><path d="M58,47.318V17.6c-4,1.193-8,2.13-13,2.75V49h-4v8h22v-8h-2.452C59.639,49,58,48.16,58,47.318z" fill="#45687F"/><path d="M36.103,21.195L32.105,36h-0.211l-3.96-14.805c-4.192-0.157-8.076-0.34-11.842-0.948L25.94,57h8.406    l9.837-36.251C41.541,21.066,38.928,21.088,36.103,21.195z" fill="#45687F"/></g><g><path d="M15,29.889c-3-0.812-7-1.857-9-3.099v20.528C6,48.16,4.363,49,3.383,49H1v8h19v-8h-5V29.889z"/><path d="M33.196,31.915L32.105,36h-0.211l-1.08-4.085c-4.145-0.063-8.047-0.171-11.823-0.852L25.94,57h8.406l6.927-25.527    C38.644,31.799,35.98,31.873,33.196,31.915z"/><path d="M58,47.318V26.789c-3,1.678-8,2.997-13,3.869V49h-4v8h22v-8h-2.452C59.639,49,58,48.16,58,47.318z"/></g></g></svg>